<svg xmlns="http://www.w3.org/2000/svg" width="1200" height="630" viewBox="0 0 1200 630" font-family="'Helvetica Neue', Arial, sans-serif">
  <defs>
    <radialGradient id="glow" cx="80%" cy="0%" r="90%">
      <stop offset="0" stop-color="#6366f1" stop-opacity=".35"/>
      <stop offset="60%" stop-color="#6366f1" stop-opacity="0"/>
    </radialGradient>
    <linearGradient id="bar" x1="0" y1="0" x2="1" y2="0">
      <stop offset="0" stop-color="#818cf8"/>
      <stop offset="1" stop-color="#4f46e5"/>
    </linearGradient>
  </defs>

  <!-- Hintergrund -->
  <rect width="1200" height="630" fill="#0e0f1e"/>
  <rect width="1200" height="630" fill="url(#glow)"/>

  <!-- Wortmarke -->
  <g transform="translate(90,86)">
    <rect width="56" height="56" rx="16" fill="#4f46e5"/>
    <g transform="translate(28,28)" fill="none" stroke="#ffffff" stroke-width="3.4">
      <circle r="18"/><circle r="9"/>
    </g>
    <circle cx="28" cy="28" r="3.4" fill="#ffffff"/>
    <text x="74" y="38" font-size="34" font-weight="700" fill="#ffffff">Sparziele</text>
  </g>

  <!-- Headline -->
  <text x="90" y="242" font-size="54" font-weight="700" fill="#ffffff">Finanzielle Ziele,</text>
  <text x="90" y="308" font-size="54" font-weight="700" fill="#ffffff">die man <tspan fill="#818cf8">wachsen sieht</tspan>.</text>

  <!-- Untertitel -->
  <text x="92" y="372" font-size="24" fill="#c2c6dd">Ziele anlegen · Fortschritt · Hochrechnung</text>

  <!-- Badges -->
  <g transform="translate(90,420)" font-size="21" font-weight="600" fill="#c2c6dd">
    <g><rect width="150" height="46" rx="23" fill="#181a2f" stroke="#2b2d49"/><text x="75" y="30" text-anchor="middle">Vanilla JS</text></g>
    <g transform="translate(166,0)"><rect width="90" height="46" rx="23" fill="#181a2f" stroke="#2b2d49"/><text x="45" y="30" text-anchor="middle">PWA</text></g>
    <g transform="translate(272,0)"><rect width="188" height="46" rx="23" fill="#181a2f" stroke="#2b2d49"/><text x="94" y="30" text-anchor="middle">kein Backend</text></g>
  </g>

  <!-- App-Karte (Mock) -->
  <g transform="translate(772,150)">
    <rect width="338" height="330" rx="26" fill="#181a2f" stroke="#2b2d49"/>
    <text x="30" y="56" font-size="19" font-weight="600" fill="#9ba0b8">GESPART GESAMT</text>
    <text x="30" y="104" font-size="42" font-weight="700" fill="#ffffff">10.100 €</text>
    <text x="200" y="104" font-size="20" fill="#9ba0b8">von 16.500 €</text>

    <!-- Gesamt-Balken 61% -->
    <rect x="30" y="128" width="278" height="16" rx="8" fill="#232448"/>
    <rect x="30" y="128" width="170" height="16" rx="8" fill="url(#bar)"/>

    <!-- Ziel-Zeilen -->
    <g transform="translate(30,178)">
      <rect width="40" height="40" rx="11" fill="#1e2038"/>
      <circle cx="20" cy="20" r="10" fill="none" stroke="#818cf8" stroke-width="3"/>
      <rect x="56" y="6" width="222" height="12" rx="6" fill="#232448"/>
      <rect x="56" y="6" width="146" height="12" rx="6" fill="url(#bar)"/>
      <rect x="56" y="26" width="110" height="9" rx="4.5" fill="#232448"/>
    </g>
    <g transform="translate(30,248)">
      <rect width="40" height="40" rx="11" fill="#1e2038"/>
      <circle cx="20" cy="20" r="10" fill="none" stroke="#818cf8" stroke-width="3"/>
      <rect x="56" y="6" width="222" height="12" rx="6" fill="#232448"/>
      <rect x="56" y="6" width="90" height="12" rx="6" fill="url(#bar)"/>
      <rect x="56" y="26" width="110" height="9" rx="4.5" fill="#232448"/>
    </g>
  </g>
</svg>
